# xmcd
#
# Track frame offsets:
#	150
#	31803
#	56672
#	81544
#	124511
#	153907
#	172562
#	201952
#	222307
#	243805
#	273214
#	300370
#	321299
#
# Disc length: 4676 seconds
#
# Revision: 0
# Processed by: cddbd v1.5.1PL0 Copyright (c) Steve Scherf et al.
# Submitted via: EasyCDDAExtractor 4.6.9.1
#
DISCID=a212420d
DTITLE=Raúl Orellana - House Nation CD-I
DYEAR=2004
DGENRE=House
TTITLE0=UPB featuring BOBBY PRUITT - We are the One (Jazz'n Groove r-n-b Vibe)
TTITLE0=+ Acapella
TTITLE1=MAMBANA - No reason Part 2 (Jazz'n Groove Soul Furic Dub)
TTITLE2=DJ GREGORY - Tropical Soundclash
TTITLE3=MIJANGOS - Music and Soul
TTITLE4=ROCHELLE FLEMING - Get It On (Summer Love) Luir Radio and The Black Roos
TTITLE4=ters Vox Min
TTITLE5=MICHELLE WEEKS - The Light (Jame Lewis Main Mix)
TTITLE6=BORIQUA BANDITS feat. GUIDO DE PALMA - Midnite Expresso
TTITLE7=UNA MAS - I Will Follow
TTITLE8=MARK RUSELL - Lost Children
TTITLE9=THICK DISK - Insatiable (E Smoove Vocal 12")
TTITLE10=TIM DE LUXE fea. SAM OBERNIK - It Just Won't Do
TTITLE11=ANTONIE CLAMARAN presents SUPALA - Alert
TTITLE12=LAYO and BUSHWAKA - Love Story (Tim Deluxe Remix)
EXTD=
EXTT0=
EXTT1=
EXTT2=
EXTT3=
EXTT4=
EXTT5=
EXTT6=
EXTT7=
EXTT8=
EXTT9=
EXTT10=
EXTT11=
EXTT12=
PLAYORDER=
